<svg width="418" height="296" viewBox="0 0 418 296" fill="none" xmlns="http://www.w3.org/2000/svg">
<g filter="url(#filter0_d_68_839)">
<path d="M306.637 235.825C200.728 248.364 229.319 247.078 131.783 238.759C85.3402 234.798 64.5209 209.417 82.8652 183.01C117.854 132.641 135.725 115.791 190.456 109.362C237.918 103.787 261.213 103.787 302.123 143.105C336.412 176.058 364.873 228.929 306.637 235.825Z" fill="#F26749"/>
<g filter="url(#filter1_i_68_839)">
<path d="M204.392 199.678C233.647 199.678 243.242 206.422 243.242 206.422C243.276 206.405 253.399 201.399 285.465 206.422C303.757 209.287 318.488 224.079 324.677 231.25C319.911 233.475 313.912 235.095 306.512 235.971C200.603 248.511 229.194 247.224 131.659 238.905C122.644 238.136 114.594 236.56 107.609 234.326C110.407 231.1 121.045 219.223 132.115 211.983C140.618 206.422 167.154 206.422 167.154 206.422C167.194 206.405 183.453 199.678 204.392 199.678Z" fill="#FCDED6"/>
</g>
<path d="M209.167 184.272C180.265 184.272 173.289 147.581 173.289 147.581L245.045 147.581C245.045 147.581 238.07 184.272 209.167 184.272Z" fill="#503333"/>
<g filter="url(#filter2_i_68_839)">
<path d="M238.462 147.486C240.252 149.764 226.969 157.055 209.299 157.013C191.905 156.971 178.767 149.901 180.072 147.486H238.462Z" fill="#F1F0D8"/>
</g>
<g filter="url(#filter3_ii_68_839)">
<path d="M207.433 163.613C218.015 163.613 223.383 173.231 225.718 179.299C221.596 182.013 216.662 183.851 210.775 184.138H207.527C200.33 183.787 194.556 181.117 189.952 177.363C192.622 171.385 197.921 163.613 207.433 163.613Z" fill="#D43E3E"/>
</g>
<g filter="url(#filter4_d_68_839)">
<path d="M325.509 226.332C325.797 222.294 335.851 219.721 347.966 220.586C360.08 221.45 369.667 225.425 369.379 229.463C369.091 233.501 359.037 236.074 346.922 235.209C334.808 234.345 325.221 230.37 325.509 226.332Z" fill="#F26749"/>
</g>
<g filter="url(#filter5_dd_68_839)">
<path d="M381.47 252.621C385.025 268.42 382.783 282.38 376.464 283.802C370.144 285.223 362.14 273.569 358.585 257.77C355.031 241.971 357.272 228.011 363.592 226.589C369.911 225.167 377.916 236.822 381.47 252.621Z" fill="#F26749"/>
</g>
<g filter="url(#filter6_d_68_839)">
<path d="M106.673 229.86C106.385 225.822 96.3304 223.25 84.2159 224.114C72.1014 224.978 62.5143 228.953 62.8025 232.991C63.0906 237.029 73.1449 239.602 85.2594 238.737C97.3739 237.873 106.961 233.899 106.673 229.86Z" fill="#F26749"/>
</g>
<g filter="url(#filter7_dd_68_839)">
<path d="M50.7113 256.149C47.1568 271.948 49.3984 285.908 55.7179 287.33C62.0374 288.752 70.0418 277.097 73.5963 261.298C77.1508 245.499 74.9092 231.539 68.5897 230.118C62.2702 228.696 54.2658 240.351 50.7113 256.149Z" fill="#F26749"/>
</g>
<g filter="url(#filter8_d_68_839)">
<path d="M83.0307 212.04C84.0417 208.12 74.6919 202.32 62.1473 199.085C49.6028 195.85 38.6139 196.405 37.603 200.325C36.592 204.245 45.9418 210.046 58.4863 213.281C71.0309 216.516 82.0198 215.961 83.0307 212.04Z" fill="#F26749"/>
</g>
<g filter="url(#filter9_dd_68_839)">
<path d="M17.9129 216.441C8.02013 229.261 4.15768 242.863 9.28593 246.82C14.4142 250.777 26.5912 243.592 36.484 230.771C46.3768 217.95 50.2392 204.349 45.111 200.392C39.9827 196.435 27.8058 203.62 17.9129 216.441Z" fill="#F26749"/>
</g>
<g filter="url(#filter10_d_68_839)">
<path d="M334.334 200.605C333.324 196.685 342.673 190.885 355.218 187.65C367.762 184.415 378.751 184.97 379.762 188.89C380.773 192.81 371.423 198.611 358.879 201.846C346.334 205.081 335.345 204.526 334.334 200.605Z" fill="#F26749"/>
</g>
<g filter="url(#filter11_dd_68_839)">
<path d="M399.452 205.006C409.345 217.826 413.208 231.427 408.079 235.385C402.951 239.342 390.774 232.156 380.881 219.336C370.988 206.515 367.126 192.914 372.254 188.957C377.383 185 389.559 192.185 399.452 205.006Z" fill="#F26749"/>
</g>
<g filter="url(#filter12_d_68_839)">
<path d="M193.814 103.797C193.814 119.343 182 131.946 167.425 131.946C152.851 131.946 141.036 119.343 141.036 103.797C141.036 88.2514 152.851 75.6489 167.425 75.6489C182 75.6489 193.814 88.2514 193.814 103.797Z" fill="white"/>
</g>
<g filter="url(#filter13_d_68_839)">
<path d="M190.882 103.797C190.882 89.6896 180.205 78.5811 167.425 78.5811C154.646 78.5811 143.968 89.6896 143.968 103.797C143.968 117.905 154.646 129.014 167.425 129.014V131.946C152.851 131.946 141.036 119.343 141.036 103.797C141.036 88.2514 152.851 75.6489 167.425 75.6489C182 75.6489 193.814 88.2514 193.814 103.797C193.814 119.343 182 131.946 167.425 131.946V129.014C180.205 129.014 190.882 117.905 190.882 103.797Z" fill="#F26749"/>
</g>
<path d="M176.926 103.797C176.926 112.542 170.625 119.631 162.852 119.631C155.079 119.631 148.777 112.542 148.777 103.797C148.777 95.0528 155.079 87.9639 162.852 87.9639C170.625 87.9639 176.926 95.0528 176.926 103.797Z" fill="#3F0713"/>
<g filter="url(#filter14_f_68_839)">
<path d="M174.463 100.806C174.463 104.207 172.888 106.964 170.944 106.964C169.001 106.964 167.426 104.207 167.426 100.806C167.426 97.4057 169.001 94.6489 170.944 94.6489C172.888 94.6489 174.463 97.4057 174.463 100.806Z" fill="white"/>
</g>
<g filter="url(#filter15_f_68_839)">
<path d="M157.925 115.761C157.925 116.926 156.98 117.872 155.814 117.872C154.648 117.872 153.703 116.926 153.703 115.761C153.703 114.595 154.648 113.649 155.814 113.649C156.98 113.649 157.925 114.595 157.925 115.761Z" fill="white"/>
</g>
<path d="M178.105 67.5729C178.244 67.1925 178.048 66.7718 177.667 66.6334C177.287 66.4949 176.866 66.6911 176.728 67.0715L173.218 76.715C173.079 77.0955 173.275 77.5161 173.656 77.6546C174.036 77.793 174.457 77.5969 174.595 77.2164L178.105 67.5729Z" fill="#F26749"/>
<path d="M168.305 65.2399C168.305 64.835 167.976 64.5068 167.572 64.5068C167.167 64.5068 166.839 64.835 166.839 65.2399V75.5023C166.839 75.9072 167.167 76.2354 167.572 76.2354C167.976 76.2354 168.305 75.9072 168.305 75.5023V65.2399Z" fill="#F26749"/>
<path d="M158.298 66.4533C158.159 66.0728 157.739 65.8767 157.358 66.0152C156.978 66.1536 156.782 66.5743 156.92 66.9547L160.43 76.5982C160.569 76.9787 160.989 77.1748 161.37 77.0364C161.75 76.8979 161.946 76.4772 161.808 76.0968L158.298 66.4533Z" fill="#F26749"/>
<g filter="url(#filter16_d_68_839)">
<path d="M271.516 103.797C271.516 119.343 259.701 131.946 245.126 131.946C230.552 131.946 218.737 119.343 218.737 103.797C218.737 88.2514 230.552 75.6489 245.126 75.6489C259.701 75.6489 271.516 88.2514 271.516 103.797Z" fill="white"/>
</g>
<g filter="url(#filter17_d_68_839)">
<path d="M268.583 103.797C268.583 89.6896 257.906 78.5811 245.126 78.5811C232.347 78.5811 221.669 89.6896 221.669 103.797C221.669 117.905 232.347 129.014 245.126 129.014V131.946C230.552 131.946 218.737 119.343 218.737 103.797C218.737 88.2514 230.552 75.6489 245.126 75.6489C259.701 75.6489 271.516 88.2514 271.516 103.797C271.516 119.343 259.701 131.946 245.126 131.946V129.014C257.906 129.014 268.583 117.905 268.583 103.797Z" fill="#F26749"/>
</g>
<path d="M254.627 103.797C254.627 112.542 248.326 119.631 240.553 119.631C232.78 119.631 226.479 112.542 226.479 103.797C226.479 95.0528 232.78 87.9639 240.553 87.9639C248.326 87.9639 254.627 95.0528 254.627 103.797Z" fill="#3F0713"/>
<g filter="url(#filter18_f_68_839)">
<path d="M252.164 100.806C252.164 104.207 250.589 106.964 248.646 106.964C246.702 106.964 245.127 104.207 245.127 100.806C245.127 97.4057 246.702 94.6489 248.646 94.6489C250.589 94.6489 252.164 97.4057 252.164 100.806Z" fill="white"/>
</g>
<g filter="url(#filter19_f_68_839)">
<path d="M235.627 115.761C235.627 116.926 234.681 117.872 233.515 117.872C232.349 117.872 231.404 116.926 231.404 115.761C231.404 114.595 232.349 113.649 233.515 113.649C234.681 113.649 235.627 114.595 235.627 115.761Z" fill="white"/>
</g>
<path d="M255.807 67.5729C255.945 67.1925 255.749 66.7718 255.368 66.6334C254.988 66.4949 254.567 66.6911 254.429 67.0715L250.919 76.715C250.78 77.0955 250.977 77.5161 251.357 77.6546C251.738 77.793 252.158 77.5969 252.297 77.2164L255.807 67.5729Z" fill="#F26749"/>
<path d="M246.006 65.2399C246.006 64.835 245.678 64.5068 245.273 64.5068C244.868 64.5068 244.54 64.835 244.54 65.2399V75.5023C244.54 75.9072 244.868 76.2354 245.273 76.2354C245.678 76.2354 246.006 75.9072 246.006 75.5023V65.2399Z" fill="#F26749"/>
<path d="M235.999 66.4533C235.861 66.0728 235.44 65.8767 235.06 66.0152C234.679 66.1536 234.483 66.5743 234.621 66.9547L238.131 76.5982C238.27 76.9787 238.691 77.1748 239.071 77.0364C239.451 76.8979 239.648 76.4772 239.509 76.0968L235.999 66.4533Z" fill="#F26749"/>
<g filter="url(#filter20_d_68_839)">
<path d="M90.8907 178.328C86.9852 182.978 76.2798 180.416 66.9793 172.605C57.6789 164.794 53.3054 154.692 57.2108 150.042C61.1162 145.392 71.8217 147.954 81.1222 155.765C90.4226 163.576 94.7961 173.677 90.8907 178.328Z" fill="#F26749"/>
</g>
<g filter="url(#filter21_d_68_839)">
<path d="M77.4087 118.458C77.4087 138.7 68.8758 155.11 58.3499 155.11C47.8239 155.11 39.291 138.7 39.291 118.458C39.291 98.2161 47.8239 81.8066 58.3499 81.8066C68.8758 81.8066 77.4087 98.2161 77.4087 118.458Z" fill="#F26749"/>
</g>
<g filter="url(#filter22_i_68_839)">
<path d="M82.1229 3.52971C89.8931 1.52598 102.453 3.52969 102.453 3.52969C102.453 3.52969 91.5264 8.215 85.6335 12.8803C79.8812 17.4341 75.2325 22.7878 72.9252 26.7191C68.8357 33.6872 69.3355 46.9163 77.4105 46.9163C81.0967 46.9163 88.5307 43.9441 92.5483 38.5008C97.2205 32.1706 100.742 17.3634 100.742 17.3634C100.742 17.3634 104.094 32.6052 104.696 42.241C105.447 54.2624 102.453 63.5357 97.2205 72.1628C93.9113 77.6186 88.6875 85.1948 80.2138 89.3679C72.904 92.9677 63.6161 94.0393 55.7317 91.986C51.2445 90.8175 47.883 88.1743 44.7383 84.3625C41.3517 80.2575 40.1458 74.6228 39.4725 66.7395C38.8741 59.7326 39.7109 51.4294 42.6496 42.241C45.8561 32.2151 48.5227 26.344 55.7317 18.6776C67.1691 6.51442 72.9252 5.90158 82.1229 3.52971Z" fill="#F26749"/>
</g>
<g filter="url(#filter23_d_68_839)">
<path d="M318.568 175.689C322.474 180.339 333.179 177.777 342.48 169.966C351.78 162.155 356.154 152.053 352.248 147.403C348.343 142.753 337.637 145.315 328.337 153.126C319.036 160.937 314.663 171.038 318.568 175.689Z" fill="#F26749"/>
</g>
<g filter="url(#filter24_d_68_839)">
<path d="M332.05 115.819C332.05 136.061 340.583 152.471 351.109 152.471C361.635 152.471 370.168 136.061 370.168 115.819C370.168 95.577 361.635 79.1675 351.109 79.1675C340.583 79.1675 332.05 95.577 332.05 115.819Z" fill="#F26749"/>
</g>
<g filter="url(#filter25_i_68_839)">
<path d="M327.336 0.890549C319.566 -1.11318 307.006 0.890532 307.006 0.890532C307.006 0.890532 317.933 5.57584 323.825 10.2411C329.578 14.795 334.227 20.1486 336.534 24.0799C340.623 31.048 340.124 44.2772 332.048 44.2772C328.362 44.2772 320.928 41.305 316.911 35.8616C312.239 29.5315 308.717 14.7242 308.717 14.7242C308.717 14.7242 305.365 29.966 304.763 39.6019C304.012 51.6232 307.006 60.8965 312.239 69.5237C315.548 74.9794 320.772 82.5557 329.245 86.7287C336.555 90.3286 345.843 91.4002 353.727 89.3469C358.214 88.1783 361.576 85.5351 364.721 81.7233C368.107 77.6184 369.313 71.9837 369.986 64.1003C370.585 57.0935 369.748 48.7903 366.809 39.6019C363.603 29.576 360.936 23.7048 353.727 16.0384C342.29 3.87526 336.534 3.26242 327.336 0.890549Z" fill="#F26749"/>
</g>
</g>
<defs>
<filter id="filter0_d_68_839" x="5.01758" y="0" width="407.33" height="293.447" filterUnits="userSpaceOnUse" color-interpolation-filters="sRGB">
<feFlood flood-opacity="0" result="BackgroundImageFix"/>
<feColorMatrix in="SourceAlpha" type="matrix" values="0 0 0 0 0 0 0 0 0 0 0 0 0 0 0 0 0 0 127 0" result="hardAlpha"/>
<feOffset dy="4"/>
<feGaussianBlur stdDeviation="1"/>
<feComposite in2="hardAlpha" operator="out"/>
<feColorMatrix type="matrix" values="0 0 0 0 0 0 0 0 0 0 0 0 0 0 0 0 0 0 0.25 0"/>
<feBlend mode="normal" in2="BackgroundImageFix" result="effect1_dropShadow_68_839"/>
<feBlend mode="normal" in="SourceGraphic" in2="effect1_dropShadow_68_839" result="shape"/>
</filter>
<filter id="filter1_i_68_839" x="107.609" y="199.678" width="247.067" height="75.5942" filterUnits="userSpaceOnUse" color-interpolation-filters="sRGB">
<feFlood flood-opacity="0" result="BackgroundImageFix"/>
<feBlend mode="normal" in="SourceGraphic" in2="BackgroundImageFix" result="shape"/>
<feColorMatrix in="SourceAlpha" type="matrix" values="0 0 0 0 0 0 0 0 0 0 0 0 0 0 0 0 0 0 127 0" result="hardAlpha"/>
<feOffset dx="30" dy="30"/>
<feGaussianBlur stdDeviation="20"/>
<feComposite in2="hardAlpha" operator="arithmetic" k2="-1" k3="1"/>
<feColorMatrix type="matrix" values="0 0 0 0 0 0 0 0 0 0 0 0 0 0 0 0 0 0 0.04 0"/>
<feBlend mode="normal" in2="shape" result="effect1_innerShadow_68_839"/>
</filter>
<filter id="filter2_i_68_839" x="179.982" y="147.486" width="62.6416" height="9.52637" filterUnits="userSpaceOnUse" color-interpolation-filters="sRGB">
<feFlood flood-opacity="0" result="BackgroundImageFix"/>
<feBlend mode="normal" in="SourceGraphic" in2="BackgroundImageFix" result="shape"/>
<feColorMatrix in="SourceAlpha" type="matrix" values="0 0 0 0 0 0 0 0 0 0 0 0 0 0 0 0 0 0 127 0" result="hardAlpha"/>
<feOffset dx="35"/>
<feGaussianBlur stdDeviation="2"/>
<feComposite in2="hardAlpha" operator="arithmetic" k2="-1" k3="1"/>
<feColorMatrix type="matrix" values="0 0 0 0 0 0 0 0 0 0 0 0 0 0 0 0 0 0 0.1 0"/>
<feBlend mode="normal" in2="shape" result="effect1_innerShadow_68_839"/>
</filter>
<filter id="filter3_ii_68_839" x="184.952" y="158.613" width="45.7656" height="30.5249" filterUnits="userSpaceOnUse" color-interpolation-filters="sRGB">
<feFlood flood-opacity="0" result="BackgroundImageFix"/>
<feBlend mode="normal" in="SourceGraphic" in2="BackgroundImageFix" result="shape"/>
<feColorMatrix in="SourceAlpha" type="matrix" values="0 0 0 0 0 0 0 0 0 0 0 0 0 0 0 0 0 0 127 0" result="hardAlpha"/>
<feOffset dx="5" dy="5"/>
<feGaussianBlur stdDeviation="20"/>
<feComposite in2="hardAlpha" operator="arithmetic" k2="-1" k3="1"/>
<feColorMatrix type="matrix" values="0 0 0 0 0 0 0 0 0 0 0 0 0 0 0 0 0 0 0.25 0"/>
<feBlend mode="normal" in2="shape" result="effect1_innerShadow_68_839"/>
<feColorMatrix in="SourceAlpha" type="matrix" values="0 0 0 0 0 0 0 0 0 0 0 0 0 0 0 0 0 0 127 0" result="hardAlpha"/>
<feOffset dx="-5" dy="-5"/>
<feGaussianBlur stdDeviation="20"/>
<feComposite in2="hardAlpha" operator="arithmetic" k2="-1" k3="1"/>
<feColorMatrix type="matrix" values="0 0 0 0 0 0 0 0 0 0 0 0 0 0 0 0 0 0 0.25 0"/>
<feBlend mode="normal" in2="effect1_innerShadow_68_839" result="effect2_innerShadow_68_839"/>
</filter>
<filter id="filter4_d_68_839" x="315.503" y="220.418" width="53.8828" height="14.958" filterUnits="userSpaceOnUse" color-interpolation-filters="sRGB">
<feFlood flood-opacity="0" result="BackgroundImageFix"/>
<feColorMatrix in="SourceAlpha" type="matrix" values="0 0 0 0 0 0 0 0 0 0 0 0 0 0 0 0 0 0 127 0" result="hardAlpha"/>
<feOffset dx="-10"/>
<feComposite in2="hardAlpha" operator="out"/>
<feColorMatrix type="matrix" values="0 0 0 0 0.838003 0 0 0 0 0.288148 0 0 0 0 0.0132197 0 0 0 1 0"/>
<feBlend mode="normal" in2="BackgroundImageFix" result="effect1_dropShadow_68_839"/>
<feBlend mode="normal" in="SourceGraphic" in2="effect1_dropShadow_68_839" result="shape"/>
</filter>
<filter id="filter5_dd_68_839" x="352.897" y="221.472" width="34.2607" height="70.4473" filterUnits="userSpaceOnUse" color-interpolation-filters="sRGB">
<feFlood flood-opacity="0" result="BackgroundImageFix"/>
<feColorMatrix in="SourceAlpha" type="matrix" values="0 0 0 0 0 0 0 0 0 0 0 0 0 0 0 0 0 0 127 0" result="hardAlpha"/>
<feOffset dx="-2" dy="-5"/>
<feComposite in2="hardAlpha" operator="out"/>
<feColorMatrix type="matrix" values="0 0 0 0 0.838003 0 0 0 0 0.288148 0 0 0 0 0.0132197 0 0 0 1 0"/>
<feBlend mode="normal" in2="BackgroundImageFix" result="effect1_dropShadow_68_839"/>
<feColorMatrix in="SourceAlpha" type="matrix" values="0 0 0 0 0 0 0 0 0 0 0 0 0 0 0 0 0 0 127 0" result="hardAlpha"/>
<feOffset dy="4"/>
<feGaussianBlur stdDeviation="2"/>
<feComposite in2="hardAlpha" operator="out"/>
<feColorMatrix type="matrix" values="0 0 0 0 0 0 0 0 0 0 0 0 0 0 0 0 0 0 0.25 0"/>
<feBlend mode="normal" in2="effect1_dropShadow_68_839" result="effect2_dropShadow_68_839"/>
<feBlend mode="normal" in="SourceGraphic" in2="effect2_dropShadow_68_839" result="shape"/>
</filter>
<filter id="filter6_d_68_839" x="62.7959" y="223.947" width="53.8828" height="14.958" filterUnits="userSpaceOnUse" color-interpolation-filters="sRGB">
<feFlood flood-opacity="0" result="BackgroundImageFix"/>
<feColorMatrix in="SourceAlpha" type="matrix" values="0 0 0 0 0 0 0 0 0 0 0 0 0 0 0 0 0 0 127 0" result="hardAlpha"/>
<feOffset dx="10"/>
<feComposite in2="hardAlpha" operator="out"/>
<feColorMatrix type="matrix" values="0 0 0 0 0.838003 0 0 0 0 0.288148 0 0 0 0 0.0132197 0 0 0 1 0"/>
<feBlend mode="normal" in2="BackgroundImageFix" result="effect1_dropShadow_68_839"/>
<feBlend mode="normal" in="SourceGraphic" in2="effect1_dropShadow_68_839" result="shape"/>
</filter>
<filter id="filter7_dd_68_839" x="45.0234" y="225" width="34.2607" height="70.4473" filterUnits="userSpaceOnUse" color-interpolation-filters="sRGB">
<feFlood flood-opacity="0" result="BackgroundImageFix"/>
<feColorMatrix in="SourceAlpha" type="matrix" values="0 0 0 0 0 0 0 0 0 0 0 0 0 0 0 0 0 0 127 0" result="hardAlpha"/>
<feOffset dx="2" dy="-5"/>
<feComposite in2="hardAlpha" operator="out"/>
<feColorMatrix type="matrix" values="0 0 0 0 0.838003 0 0 0 0 0.288148 0 0 0 0 0.0132197 0 0 0 1 0"/>
<feBlend mode="normal" in2="BackgroundImageFix" result="effect1_dropShadow_68_839"/>
<feColorMatrix in="SourceAlpha" type="matrix" values="0 0 0 0 0 0 0 0 0 0 0 0 0 0 0 0 0 0 127 0" result="hardAlpha"/>
<feOffset dy="4"/>
<feGaussianBlur stdDeviation="2"/>
<feComposite in2="hardAlpha" operator="out"/>
<feColorMatrix type="matrix" values="0 0 0 0 0 0 0 0 0 0 0 0 0 0 0 0 0 0 0.25 0"/>
<feBlend mode="normal" in2="effect1_dropShadow_68_839" result="effect2_dropShadow_68_839"/>
<feBlend mode="normal" in="SourceGraphic" in2="effect2_dropShadow_68_839" result="shape"/>
</filter>
<filter id="filter8_d_68_839" x="37.5283" y="196.979" width="50.5771" height="18.4067" filterUnits="userSpaceOnUse" color-interpolation-filters="sRGB">
<feFlood flood-opacity="0" result="BackgroundImageFix"/>
<feColorMatrix in="SourceAlpha" type="matrix" values="0 0 0 0 0 0 0 0 0 0 0 0 0 0 0 0 0 0 127 0" result="hardAlpha"/>
<feOffset dx="5"/>
<feComposite in2="hardAlpha" operator="out"/>
<feColorMatrix type="matrix" values="0 0 0 0 0.838003 0 0 0 0 0.288148 0 0 0 0 0.0132197 0 0 0 1 0"/>
<feBlend mode="normal" in2="BackgroundImageFix" result="effect1_dropShadow_68_839"/>
<feBlend mode="normal" in="SourceGraphic" in2="effect1_dropShadow_68_839" result="shape"/>
</filter>
<filter id="filter9_dd_68_839" x="3.01758" y="194.305" width="48.3613" height="61.6016" filterUnits="userSpaceOnUse" color-interpolation-filters="sRGB">
<feFlood flood-opacity="0" result="BackgroundImageFix"/>
<feColorMatrix in="SourceAlpha" type="matrix" values="0 0 0 0 0 0 0 0 0 0 0 0 0 0 0 0 0 0 127 0" result="hardAlpha"/>
<feOffset dx="2" dy="-5"/>
<feComposite in2="hardAlpha" operator="out"/>
<feColorMatrix type="matrix" values="0 0 0 0 0.838003 0 0 0 0 0.288148 0 0 0 0 0.0132197 0 0 0 1 0"/>
<feBlend mode="normal" in2="BackgroundImageFix" result="effect1_dropShadow_68_839"/>
<feColorMatrix in="SourceAlpha" type="matrix" values="0 0 0 0 0 0 0 0 0 0 0 0 0 0 0 0 0 0 127 0" result="hardAlpha"/>
<feOffset dy="4"/>
<feGaussianBlur stdDeviation="2"/>
<feComposite in2="hardAlpha" operator="out"/>
<feColorMatrix type="matrix" values="0 0 0 0 0 0 0 0 0 0 0 0 0 0 0 0 0 0 0.25 0"/>
<feBlend mode="normal" in2="effect1_dropShadow_68_839" result="effect2_dropShadow_68_839"/>
<feBlend mode="normal" in="SourceGraphic" in2="effect2_dropShadow_68_839" result="shape"/>
</filter>
<filter id="filter10_d_68_839" x="329.26" y="185.544" width="50.5771" height="18.4067" filterUnits="userSpaceOnUse" color-interpolation-filters="sRGB">
<feFlood flood-opacity="0" result="BackgroundImageFix"/>
<feColorMatrix in="SourceAlpha" type="matrix" values="0 0 0 0 0 0 0 0 0 0 0 0 0 0 0 0 0 0 127 0" result="hardAlpha"/>
<feOffset dx="-5"/>
<feComposite in2="hardAlpha" operator="out"/>
<feColorMatrix type="matrix" values="0 0 0 0 0.838003 0 0 0 0 0.288148 0 0 0 0 0.0132197 0 0 0 1 0"/>
<feBlend mode="normal" in2="BackgroundImageFix" result="effect1_dropShadow_68_839"/>
<feBlend mode="normal" in="SourceGraphic" in2="effect1_dropShadow_68_839" result="shape"/>
</filter>
<filter id="filter11_dd_68_839" x="365.986" y="182.87" width="48.3613" height="61.6016" filterUnits="userSpaceOnUse" color-interpolation-filters="sRGB">
<feFlood flood-opacity="0" result="BackgroundImageFix"/>
<feColorMatrix in="SourceAlpha" type="matrix" values="0 0 0 0 0 0 0 0 0 0 0 0 0 0 0 0 0 0 127 0" result="hardAlpha"/>
<feOffset dx="-2" dy="-5"/>
<feComposite in2="hardAlpha" operator="out"/>
<feColorMatrix type="matrix" values="0 0 0 0 0.838003 0 0 0 0 0.288148 0 0 0 0 0.0132197 0 0 0 1 0"/>
<feBlend mode="normal" in2="BackgroundImageFix" result="effect1_dropShadow_68_839"/>
<feColorMatrix in="SourceAlpha" type="matrix" values="0 0 0 0 0 0 0 0 0 0 0 0 0 0 0 0 0 0 127 0" result="hardAlpha"/>
<feOffset dy="4"/>
<feGaussianBlur stdDeviation="2"/>
<feComposite in2="hardAlpha" operator="out"/>
<feColorMatrix type="matrix" values="0 0 0 0 0 0 0 0 0 0 0 0 0 0 0 0 0 0 0.25 0"/>
<feBlend mode="normal" in2="effect1_dropShadow_68_839" result="effect2_dropShadow_68_839"/>
<feBlend mode="normal" in="SourceGraphic" in2="effect2_dropShadow_68_839" result="shape"/>
</filter>
<filter id="filter12_d_68_839" x="131.036" y="69.6489" width="72.7783" height="76.2969" filterUnits="userSpaceOnUse" color-interpolation-filters="sRGB">
<feFlood flood-opacity="0" result="BackgroundImageFix"/>
<feColorMatrix in="SourceAlpha" type="matrix" values="0 0 0 0 0 0 0 0 0 0 0 0 0 0 0 0 0 0 127 0" result="hardAlpha"/>
<feOffset dy="4"/>
<feGaussianBlur stdDeviation="5"/>
<feComposite in2="hardAlpha" operator="out"/>
<feColorMatrix type="matrix" values="0 0 0 0 0 0 0 0 0 0 0 0 0 0 0 0 0 0 0.25 0"/>
<feBlend mode="normal" in2="BackgroundImageFix" result="effect1_dropShadow_68_839"/>
<feBlend mode="normal" in="SourceGraphic" in2="effect1_dropShadow_68_839" result="shape"/>
</filter>
<filter id="filter13_d_68_839" x="131.036" y="69.6489" width="72.7783" height="76.2969" filterUnits="userSpaceOnUse" color-interpolation-filters="sRGB">
<feFlood flood-opacity="0" result="BackgroundImageFix"/>
<feColorMatrix in="SourceAlpha" type="matrix" values="0 0 0 0 0 0 0 0 0 0 0 0 0 0 0 0 0 0 127 0" result="hardAlpha"/>
<feOffset dy="4"/>
<feGaussianBlur stdDeviation="5"/>
<feComposite in2="hardAlpha" operator="out"/>
<feColorMatrix type="matrix" values="0 0 0 0 0 0 0 0 0 0 0 0 0 0 0 0 0 0 0.25 0"/>
<feBlend mode="normal" in2="BackgroundImageFix" result="effect1_dropShadow_68_839"/>
<feBlend mode="normal" in="SourceGraphic" in2="effect1_dropShadow_68_839" result="shape"/>
</filter>
<filter id="filter14_f_68_839" x="166.426" y="93.6489" width="9.03711" height="14.3149" filterUnits="userSpaceOnUse" color-interpolation-filters="sRGB">
<feFlood flood-opacity="0" result="BackgroundImageFix"/>
<feBlend mode="normal" in="SourceGraphic" in2="BackgroundImageFix" result="shape"/>
<feGaussianBlur stdDeviation="0.5" result="effect1_foregroundBlur_68_839"/>
</filter>
<filter id="filter15_f_68_839" x="152.703" y="112.649" width="6.22266" height="6.22217" filterUnits="userSpaceOnUse" color-interpolation-filters="sRGB">
<feFlood flood-opacity="0" result="BackgroundImageFix"/>
<feBlend mode="normal" in="SourceGraphic" in2="BackgroundImageFix" result="shape"/>
<feGaussianBlur stdDeviation="0.5" result="effect1_foregroundBlur_68_839"/>
</filter>
<filter id="filter16_d_68_839" x="208.737" y="69.6489" width="72.7783" height="76.2969" filterUnits="userSpaceOnUse" color-interpolation-filters="sRGB">
<feFlood flood-opacity="0" result="BackgroundImageFix"/>
<feColorMatrix in="SourceAlpha" type="matrix" values="0 0 0 0 0 0 0 0 0 0 0 0 0 0 0 0 0 0 127 0" result="hardAlpha"/>
<feOffset dy="4"/>
<feGaussianBlur stdDeviation="5"/>
<feComposite in2="hardAlpha" operator="out"/>
<feColorMatrix type="matrix" values="0 0 0 0 0 0 0 0 0 0 0 0 0 0 0 0 0 0 0.25 0"/>
<feBlend mode="normal" in2="BackgroundImageFix" result="effect1_dropShadow_68_839"/>
<feBlend mode="normal" in="SourceGraphic" in2="effect1_dropShadow_68_839" result="shape"/>
</filter>
<filter id="filter17_d_68_839" x="208.737" y="69.6489" width="72.7783" height="76.2969" filterUnits="userSpaceOnUse" color-interpolation-filters="sRGB">
<feFlood flood-opacity="0" result="BackgroundImageFix"/>
<feColorMatrix in="SourceAlpha" type="matrix" values="0 0 0 0 0 0 0 0 0 0 0 0 0 0 0 0 0 0 127 0" result="hardAlpha"/>
<feOffset dy="4"/>
<feGaussianBlur stdDeviation="5"/>
<feComposite in2="hardAlpha" operator="out"/>
<feColorMatrix type="matrix" values="0 0 0 0 0 0 0 0 0 0 0 0 0 0 0 0 0 0 0.25 0"/>
<feBlend mode="normal" in2="BackgroundImageFix" result="effect1_dropShadow_68_839"/>
<feBlend mode="normal" in="SourceGraphic" in2="effect1_dropShadow_68_839" result="shape"/>
</filter>
<filter id="filter18_f_68_839" x="244.127" y="93.6489" width="9.03711" height="14.3149" filterUnits="userSpaceOnUse" color-interpolation-filters="sRGB">
<feFlood flood-opacity="0" result="BackgroundImageFix"/>
<feBlend mode="normal" in="SourceGraphic" in2="BackgroundImageFix" result="shape"/>
<feGaussianBlur stdDeviation="0.5" result="effect1_foregroundBlur_68_839"/>
</filter>
<filter id="filter19_f_68_839" x="230.404" y="112.649" width="6.22266" height="6.22217" filterUnits="userSpaceOnUse" color-interpolation-filters="sRGB">
<feFlood flood-opacity="0" result="BackgroundImageFix"/>
<feBlend mode="normal" in="SourceGraphic" in2="BackgroundImageFix" result="shape"/>
<feGaussianBlur stdDeviation="0.5" result="effect1_foregroundBlur_68_839"/>
</filter>
<filter id="filter20_d_68_839" x="55.7812" y="147.723" width="41.5391" height="40.9243" filterUnits="userSpaceOnUse" color-interpolation-filters="sRGB">
<feFlood flood-opacity="0" result="BackgroundImageFix"/>
<feColorMatrix in="SourceAlpha" type="matrix" values="0 0 0 0 0 0 0 0 0 0 0 0 0 0 0 0 0 0 127 0" result="hardAlpha"/>
<feOffset dx="5" dy="8"/>
<feComposite in2="hardAlpha" operator="out"/>
<feColorMatrix type="matrix" values="0 0 0 0 0.839216 0 0 0 0 0.286275 0 0 0 0 0.0117647 0 0 0 1 0"/>
<feBlend mode="normal" in2="BackgroundImageFix" result="effect1_dropShadow_68_839"/>
<feBlend mode="normal" in="SourceGraphic" in2="effect1_dropShadow_68_839" result="shape"/>
</filter>
<filter id="filter21_d_68_839" x="39.291" y="81.8066" width="40.1172" height="83.3032" filterUnits="userSpaceOnUse" color-interpolation-filters="sRGB">
<feFlood flood-opacity="0" result="BackgroundImageFix"/>
<feColorMatrix in="SourceAlpha" type="matrix" values="0 0 0 0 0 0 0 0 0 0 0 0 0 0 0 0 0 0 127 0" result="hardAlpha"/>
<feOffset dx="2" dy="10"/>
<feComposite in2="hardAlpha" operator="out"/>
<feColorMatrix type="matrix" values="0 0 0 0 0.839216 0 0 0 0 0.286275 0 0 0 0 0.0117647 0 0 0 1 0"/>
<feBlend mode="normal" in2="BackgroundImageFix" result="effect1_dropShadow_68_839"/>
<feBlend mode="normal" in="SourceGraphic" in2="effect1_dropShadow_68_839" result="shape"/>
</filter>
<filter id="filter22_i_68_839" x="39.291" y="2.63916" width="65.5195" height="90.3809" filterUnits="userSpaceOnUse" color-interpolation-filters="sRGB">
<feFlood flood-opacity="0" result="BackgroundImageFix"/>
<feBlend mode="normal" in="SourceGraphic" in2="BackgroundImageFix" result="shape"/>
<feColorMatrix in="SourceAlpha" type="matrix" values="0 0 0 0 0 0 0 0 0 0 0 0 0 0 0 0 0 0 127 0" result="hardAlpha"/>
<feOffset dy="-10"/>
<feComposite in2="hardAlpha" operator="arithmetic" k2="-1" k3="1"/>
<feColorMatrix type="matrix" values="0 0 0 0 0.839216 0 0 0 0 0.286275 0 0 0 0 0.0117647 0 0 0 1 0"/>
<feBlend mode="normal" in2="shape" result="effect1_innerShadow_68_839"/>
</filter>
<filter id="filter23_d_68_839" x="312.139" y="145.083" width="41.5391" height="40.9243" filterUnits="userSpaceOnUse" color-interpolation-filters="sRGB">
<feFlood flood-opacity="0" result="BackgroundImageFix"/>
<feColorMatrix in="SourceAlpha" type="matrix" values="0 0 0 0 0 0 0 0 0 0 0 0 0 0 0 0 0 0 127 0" result="hardAlpha"/>
<feOffset dx="-5" dy="8"/>
<feComposite in2="hardAlpha" operator="out"/>
<feColorMatrix type="matrix" values="0 0 0 0 0.839216 0 0 0 0 0.286275 0 0 0 0 0.0117647 0 0 0 1 0"/>
<feBlend mode="normal" in2="BackgroundImageFix" result="effect1_dropShadow_68_839"/>
<feBlend mode="normal" in="SourceGraphic" in2="effect1_dropShadow_68_839" result="shape"/>
</filter>
<filter id="filter24_d_68_839" x="332.051" y="79.1675" width="40.1172" height="83.3032" filterUnits="userSpaceOnUse" color-interpolation-filters="sRGB">
<feFlood flood-opacity="0" result="BackgroundImageFix"/>
<feColorMatrix in="SourceAlpha" type="matrix" values="0 0 0 0 0 0 0 0 0 0 0 0 0 0 0 0 0 0 127 0" result="hardAlpha"/>
<feOffset dx="2" dy="10"/>
<feComposite in2="hardAlpha" operator="out"/>
<feColorMatrix type="matrix" values="0 0 0 0 0.839216 0 0 0 0 0.286275 0 0 0 0 0.0117647 0 0 0 1 0"/>
<feBlend mode="normal" in2="BackgroundImageFix" result="effect1_dropShadow_68_839"/>
<feBlend mode="normal" in="SourceGraphic" in2="effect1_dropShadow_68_839" result="shape"/>
</filter>
<filter id="filter25_i_68_839" x="304.648" y="0" width="65.5195" height="90.3809" filterUnits="userSpaceOnUse" color-interpolation-filters="sRGB">
<feFlood flood-opacity="0" result="BackgroundImageFix"/>
<feBlend mode="normal" in="SourceGraphic" in2="BackgroundImageFix" result="shape"/>
<feColorMatrix in="SourceAlpha" type="matrix" values="0 0 0 0 0 0 0 0 0 0 0 0 0 0 0 0 0 0 127 0" result="hardAlpha"/>
<feOffset dy="-10"/>
<feComposite in2="hardAlpha" operator="arithmetic" k2="-1" k3="1"/>
<feColorMatrix type="matrix" values="0 0 0 0 0.839216 0 0 0 0 0.286275 0 0 0 0 0.0117647 0 0 0 1 0"/>
<feBlend mode="normal" in2="shape" result="effect1_innerShadow_68_839"/>
</filter>
</defs>
</svg>
