<svg width="490" height="224" viewBox="0 0 490 224" fill="none" xmlns="http://www.w3.org/2000/svg">
<g filter="url(#filter0_d_140_400)">
<path data-colorable="true" d="M481.566 106.65C485.029 97.3004 487.517 58.4407 482.303 59.5651C477.289 59.5651 464.376 63.791 452.837 80.6946C441.722 96.9771 418.497 109.168 407.106 113.737C412.445 111.261 424.25 101.59 437.589 77.9386C455.722 45.7851 408.515 49.0067 402.147 44.8665C397.201 41.6511 308.184 15.9284 262.439 7.66031C235.651 -0.607721 166.416 -0.607687 151.991 2.14829C141.871 4.08201 113.39 18.8375 100.477 27.871C91.2729 31.3926 71.6287 40.0893 66.6832 46.7038C60.5015 54.9718 34.9505 60.9431 20.1143 62.3211C8.24536 63.4235 9.67404 74.1107 11.872 79.3165C20.9525 83.9563 21.4657 85.4558 20.1143 87.5846C19.6428 90.1757 18.7955 91.9921 11.872 98.6086C11.872 104.58 16.8174 104.274 20.1143 104.58C26.7082 103.508 43.605 102.834 58.4412 108.714C76.9865 116.063 84.8164 142.705 89.3497 149.595C93.883 156.485 141.689 184.504 151.991 188.179C162.294 191.854 172.185 194.61 212.161 206.552C252.136 218.495 385.111 210.698 413.959 201.052C435.861 193.729 416.569 163.386 403.656 147.31C427.147 150.066 449.746 194.61 461.492 212.294C470.888 226.441 471.451 178.686 470.558 153.04C472.825 138.877 479.504 112.215 481.566 106.65Z" fill="white"/>
<path data-colorable="true" d="M482.303 59.5651C487.517 58.4407 485.029 97.3004 481.566 106.65C479.504 112.215 472.825 138.877 470.558 153.04C471.451 178.686 470.888 226.441 461.492 212.294C449.746 194.61 427.147 150.066 403.656 147.31C416.569 163.386 435.861 193.729 413.959 201.052C385.111 210.698 252.136 218.495 212.161 206.552C172.185 194.61 162.294 191.854 151.991 188.179C141.689 184.504 93.883 156.485 89.3497 149.595C84.8164 142.705 76.9865 116.063 58.4412 108.714C43.605 102.834 26.7082 103.508 20.1143 104.58C16.8174 104.274 11.872 104.58 11.872 98.6086C18.7955 91.9921 19.6428 90.1757 20.1143 87.5846C21.4657 85.4558 20.9525 83.9563 11.872 79.3165C9.67404 74.1107 8.24535 63.4235 20.1143 62.3211C34.9505 60.9431 60.5015 54.9718 66.6832 46.7038C71.6286 40.0893 91.2729 31.3926 100.477 27.871C113.39 18.8375 141.871 4.08201 151.991 2.14829C166.416 -0.607687 235.651 -0.607721 262.439 7.66031C308.184 15.9284 397.201 41.6511 402.147 44.8665C408.515 49.0067 455.722 45.7851 437.589 77.9386C423.082 103.661 410.389 112.848 405.856 114.226C416.708 110.092 441.298 97.5981 452.837 80.6946C464.376 63.791 477.289 59.5651 482.303 59.5651Z" stroke="black"/>
</g>
<path d="M175.274 17.8178C164.416 13.9684 148.891 4.62629 148.891 4.62629C143.944 -1.14499 118.591 15.5297 103.751 23.9118L72.2149 37.9277C60.054 48.0275 32.8648 57.9651 14.9143 60.484C-12.2932 64.3019 5.23888 76.5776 17.5938 84.8058C11.8225 84.8058 8.52466 92.6382 8.52466 92.6382C8.52466 92.6382 8.14296 102.781 14.9143 104.181C21.7713 105.598 37.175 102.12 47.4808 106.036C67.2108 113.533 71.3904 112.632 86.8492 149.32C115.871 173.725 160.433 197.552 181.457 197.552L190.938 190.132C190.938 190.132 197.946 187.658 196.71 180.238C195.473 172.818 188.135 162.429 181.869 157.153C175.603 151.876 174.861 137.915 175.274 131.594C175.686 125.273 185.195 125.123 189.702 119.227C193.244 114.593 196.106 111.838 196.71 106.036C197.465 98.7807 189.126 95.9936 189.702 88.722C190.185 82.6215 194.796 80.5186 196.71 74.706C200.839 62.1675 196.71 40.9029 196.71 40.9029C196.71 40.9029 195.877 26.8593 189.702 21.9401C185.118 18.2888 180.797 19.776 175.274 17.8178Z" fill="white" stroke="black"/>
<path data-colorable="true" d="M175.274 17.8178C164.416 13.9684 148.891 4.62629 148.891 4.62629C143.944 -1.14499 118.591 15.5297 103.751 23.9118L72.2149 37.9277C60.054 48.0275 32.8648 57.9651 14.9143 60.484C-12.2932 64.3019 5.23888 76.5776 17.5938 84.8058C11.8225 84.8058 8.52466 92.6382 8.52466 92.6382C8.52466 92.6382 8.14296 102.781 14.9143 104.181C21.7713 105.598 37.175 102.12 47.4808 106.036C67.2108 113.533 71.3904 112.632 86.8492 149.32C115.871 173.725 160.433 197.552 181.457 197.552L190.938 190.132C190.938 190.132 197.946 187.658 196.71 180.238C195.473 172.818 188.135 162.429 181.869 157.153C175.603 151.876 174.861 137.915 175.274 131.594C175.686 125.273 185.195 125.123 189.702 119.227C193.244 114.593 196.106 111.838 196.71 106.036C197.465 98.7807 189.126 95.9936 189.702 88.722C190.185 82.6215 194.796 80.5186 196.71 74.706C200.839 62.1675 196.71 40.9029 196.71 40.9029C196.71 40.9029 195.877 26.8593 189.702 21.9401C185.118 18.2888 180.797 19.776 175.274 17.8178Z" fill="white" stroke="black"/>
<path d="M99.8363 78.8273C147.037 52.6504 147.177 27.3256 147.177 3.41602C141.702 3.41602 133.867 5.79428 122.303 12.8699C108.616 21.2447 88.6119 28.2837 84.0535 30.6075C73.5415 35.9666 43.196 54.8857 6.36333 61.6836C-5.29019 66.5392 1.54572 76.0863 17.0457 84.9906C12.1901 84.0194 2.47882 97.6152 12.1901 102.471C27.855 101.811 57.9945 83.9802 99.8363 78.8273Z" fill="white" stroke="black"/>
<path data-colorable="true" d="M99.8363 78.8273C147.037 52.6504 147.177 27.3256 147.177 3.41602C141.702 3.41602 133.867 5.79428 122.303 12.8699C108.616 21.2447 88.6119 28.2837 84.0535 30.6075C73.5415 35.9666 43.196 54.8857 6.36333 61.6836C-5.29019 66.5392 1.54572 76.0863 17.0457 84.9906C12.1901 84.0194 2.47882 97.6152 12.1901 102.471C27.855 101.811 57.9945 83.9802 99.8363 78.8273Z" fill="white" stroke="black"/>
<path d="M126.829 137.337C122.245 154.866 132.508 172.965 136.493 182.103C131.648 182.953 95.9118 159.804 95.9118 159.804C95.9118 159.804 86.9652 152.969 80.453 137.337C73.9408 121.705 95.2591 134.984 103.538 130.535C120.018 121.68 141.464 101.267 132.807 92.6099C144.514 90.6312 143.456 105.527 141.464 113.222C125.18 133.009 129.617 126.68 126.829 137.337Z" fill="white" stroke="black"/>
<path data-colorable="true" d="M126.829 137.337C122.245 154.866 132.508 172.965 136.493 182.103C131.648 182.953 95.9118 159.804 95.9118 159.804C95.9118 159.804 86.9652 152.969 80.453 137.337C73.9408 121.705 95.2591 134.984 103.538 130.535C120.018 121.68 141.464 101.267 132.807 92.6099C144.514 90.6312 143.456 105.527 141.464 113.222C125.18 133.009 129.617 126.68 126.829 137.337Z" fill="white" stroke="black"/>
<path d="M322.33 200.023C358.072 188.2 391.217 163.541 403.035 147.257C434.392 176.272 422.829 194.637 419.524 199.199C419.524 199.199 373.972 210.947 297.503 213.009C236.327 214.658 194.375 202.771 183.726 197.138C241.109 209.175 272.962 216.354 322.33 200.023Z" fill="white" stroke="black"/>
<path data-colorable="true" d="M322.33 200.023C358.072 188.2 391.217 163.541 403.035 147.257C434.392 176.272 422.829 194.637 419.524 199.199C419.524 199.199 373.972 210.947 297.503 213.009C236.327 214.658 194.375 202.771 183.726 197.138C241.109 209.175 272.962 216.354 322.33 200.023Z" fill="white" stroke="black"/>
<g filter="url(#filter1_d_140_400)">
<ellipse data-no-color="true" cx="24.528" cy="23.9096" rx="24.528" ry="23.9096" transform="matrix(-1 0 0 1 122.92 21.1113)" fill="#F5F5F5"/>
<path data-no-color="true" d="M98.3916 21.6113C85.1095 21.6115 74.3645 32.104 74.3643 45.0205C74.3643 57.9372 85.1094 68.4305 98.3916 68.4307C111.674 68.4307 122.42 57.9373 122.42 45.0205C122.42 32.1039 111.674 21.6113 98.3916 21.6113Z" stroke="black"/>
</g>
<path d="M117.45 30.6545C119.821 29.2352 124.034 25.12 124.305 21.2129M120.497 34.379C122.869 32.9598 127.081 28.8446 127.352 24.9375M113.403 26.4471C115.775 25.0278 119.987 20.9127 120.259 17.0056" stroke="black" stroke-width="4"/>
<path d="M322.33 200.023C358.072 188.2 391.217 163.541 403.035 147.257C434.392 176.272 422.829 194.637 419.524 199.199C419.524 199.199 373.972 210.947 297.503 213.009C236.327 214.658 194.375 202.771 183.726 197.138C241.109 209.175 272.962 216.354 322.33 200.023Z" fill="white" stroke="black"/>
<path d="M482.003 103.846C489.423 79.9368 485.094 64.3406 482.003 59.5312C475.242 56.3982 461.185 68.9439 455.001 75.6083C445.932 93.4168 422.272 106.994 410.661 111.804L403.24 147.256C417.751 146.266 449.23 193.507 464.689 216.18C470.46 226.28 472.29 157.355 472.29 153.645C472.29 150.73 477.262 119.03 482.003 103.846Z" fill="white" stroke="black"/>
<path d="M441.783 68.1071C436.012 86.5752 418.904 105.346 410.659 111.392C408.392 94.3527 392.191 52.1536 362.016 32.0366C371.635 34.2352 397.427 41.8066 403.033 44.6098C413.339 47.0832 432.392 51.159 436.424 54.0911C440.959 57.389 441.783 61.3052 441.783 68.1071Z" fill="white" stroke="black"/>
<path d="M422.863 99.0896C423.038 98.5542 422.945 99.0369 422.921 98.474C422.849 96.7953 410.995 100.835 410.161 102.027C409.93 102.357 409.907 102.291 410.103 102.643C410.724 103.761 422.665 99.6941 422.863 99.0896Z" fill="#D9D9D9"/>
<path d="M425.706 94.2656C425.926 93.5927 425.81 94.1994 425.78 93.492C425.69 91.383 410.851 96.4644 409.807 97.962C409.518 98.3765 409.489 98.2936 409.734 98.7356C410.511 100.141 425.458 95.0252 425.706 94.2656Z" fill="#D9D9D9"/>
<path d="M427.32 89.2804C427.574 88.4872 427.439 89.2021 427.406 88.369C427.309 85.885 410.231 91.9101 409.027 93.6769C408.694 94.1659 408.661 94.0683 408.941 94.5883C409.831 96.2411 427.032 90.1758 427.32 89.2804Z" fill="#D9D9D9"/>
<path d="M430.965 83.0385C431.291 82.0428 431.118 82.9405 431.074 81.8938C430.942 78.7728 409.014 86.2951 407.471 88.5115C407.044 89.1249 407.001 89.0023 407.363 89.6562C408.511 91.735 430.598 84.1626 430.965 83.0385Z" fill="#D9D9D9"/>
<path d="M401.78 47.0195C402.007 46.2321 401.882 46.9405 401.866 46.1176C401.817 43.6638 387.269 49.8493 386.225 51.6118C385.936 52.0996 385.909 52.0036 386.139 52.5137C386.871 54.1352 401.525 47.9083 401.78 47.0195Z" fill="#D9D9D9"/>
<path d="M393.998 43.4732C394.168 42.8229 394.071 43.4071 394.068 42.7301C394.059 40.7114 383.617 45.9539 382.853 47.4153C382.642 47.8197 382.624 47.741 382.783 48.1584C383.288 49.4851 393.806 44.2073 393.998 43.4732Z" fill="#D9D9D9"/>
<path d="M433.78 75.6673C434.173 74.4043 433.962 75.542 433.917 74.2174C433.786 70.2678 407.757 79.9609 405.913 82.7786C405.402 83.5584 405.353 83.4034 405.775 84.2285C407.119 86.851 433.337 77.0931 433.78 75.6673Z" fill="#D9D9D9"/>
<path d="M412.419 50.4804C412.736 49.479 412.567 50.3814 412.528 49.3302C412.413 46.1961 391.232 53.8348 389.735 56.0668C389.321 56.6845 389.28 56.5614 389.626 57.2169C390.726 59.3004 412.061 51.6108 412.419 50.4804Z" fill="#D9D9D9"/>
<path d="M434.135 67.8603C434.584 66.3751 434.34 67.7124 434.297 66.1567C434.166 61.5183 404.782 73.0211 402.689 76.3389C402.11 77.2571 402.055 77.0754 402.528 78.0425C404.031 81.1167 433.629 69.537 434.135 67.8603Z" fill="#D9D9D9"/>
<path d="M415.129 191.74C416.655 191.461 415.354 191.855 416.718 191.106C420.785 188.871 397.13 167.985 393.223 167.639C392.142 167.543 392.278 167.411 391.634 168.274C389.586 171.015 413.406 192.056 415.129 191.74Z" fill="#D9D9D9"/>
<path d="M65.6618 60.4896C66.0727 58.9936 65.8632 60.3366 65.7801 58.7825C65.5324 54.1489 36.4482 66.3916 34.4406 69.7613C33.885 70.6939 33.8253 70.5136 34.3224 71.4684C35.9025 74.5036 65.198 62.1786 65.6618 60.4896Z" fill="#D9D9D9"/>
<path d="M417.194 181.32C418.488 181.081 417.385 181.416 418.543 180.782C421.995 178.891 402.019 161.402 398.71 161.123C397.794 161.046 397.91 160.935 397.362 161.661C395.618 163.972 415.734 181.591 417.194 181.32Z" fill="#D9D9D9"/>
<path d="M482.089 65.3192C481.977 64.268 482.172 65.1752 481.752 64.1999C480.499 61.2916 466.086 75.7765 465.693 78.3917C465.585 79.1155 465.506 79.0138 466.03 79.5111C467.696 81.0918 482.215 66.506 482.089 65.3192Z" fill="#D9D9D9"/>
<path d="M483.324 73.5678C483.212 72.5165 483.408 73.4238 482.987 72.4484C481.734 69.5402 467.321 84.025 466.929 86.6403C466.82 87.3641 466.742 87.2623 467.266 87.7596C468.932 89.3404 483.451 74.7545 483.324 73.5678Z" fill="#D9D9D9"/>
<path d="M483.324 83.0477C483.212 81.9965 483.408 82.9037 482.987 81.9284C481.734 79.0201 467.321 93.505 466.929 96.1203C466.82 96.844 466.742 96.7423 467.266 97.2396C468.932 98.8204 483.451 84.2345 483.324 83.0477Z" fill="#D9D9D9"/>
<path d="M483.324 93.7665C483.212 92.7153 483.408 93.6225 482.987 92.6471C481.734 89.7389 467.321 104.224 466.929 106.839C466.82 107.563 466.742 107.461 467.266 107.958C468.932 109.539 483.451 94.9533 483.324 93.7665Z" fill="#D9D9D9"/>
<path d="M482.089 105.722C481.977 104.671 482.172 105.578 481.752 104.603C480.499 101.694 466.086 116.179 465.693 118.795C465.585 119.518 465.506 119.417 466.03 119.914C467.696 121.495 482.215 106.909 482.089 105.722Z" fill="#D9D9D9"/>
<path d="M464.116 202.446C465.173 202.465 464.248 202.546 465.268 202.25C468.31 201.368 455.729 185.267 453.183 184.552C452.478 184.354 452.589 184.289 452.03 184.747C450.255 186.204 462.922 202.424 464.116 202.446Z" fill="#D9D9D9"/>
<path d="M465.352 192.966C466.409 192.985 465.485 193.066 466.505 192.77C469.546 191.888 456.965 175.787 454.419 175.072C453.715 174.875 453.825 174.809 453.267 175.267C451.491 176.724 464.159 192.944 465.352 192.966Z" fill="#D9D9D9"/>
<path d="M465.352 183.485C466.409 183.505 465.485 183.586 466.505 183.29C469.546 182.408 456.965 166.306 454.419 165.592C453.715 165.394 453.825 165.329 453.267 165.787C451.491 167.244 464.159 183.463 465.352 183.485Z" fill="#D9D9D9"/>
<path d="M465.352 172.767C466.409 172.787 465.485 172.868 466.505 172.572C469.546 171.69 456.965 155.588 454.419 154.874C453.715 154.676 453.825 154.611 453.267 155.069C451.491 156.526 464.159 172.745 465.352 172.767Z" fill="#D9D9D9"/>
<path d="M465.352 162.462C466.409 162.482 465.485 162.563 466.505 162.267C469.546 161.385 456.965 145.283 454.419 144.569C453.715 144.371 453.825 144.306 453.267 144.764C451.491 146.221 464.159 162.44 465.352 162.462Z" fill="#D9D9D9"/>
<path d="M405.885 195.806C407.289 195.551 406.093 195.913 407.347 195.223C411.085 193.165 389.269 173.799 385.672 173.471C384.677 173.38 384.802 173.258 384.211 174.055C382.331 176.585 404.3 196.094 405.885 195.806Z" fill="#D9D9D9"/>
<path d="M395.815 199.027C397.075 198.799 396.002 199.123 397.126 198.504C400.477 196.656 380.866 179.17 377.638 178.868C376.744 178.785 376.856 178.675 376.327 179.392C374.645 181.669 394.393 199.284 395.815 199.027Z" fill="#D9D9D9"/>
<path d="M384.972 201.822C386.058 201.63 385.133 201.908 386.1 201.371C388.984 199.772 371.946 184.341 369.156 184.058C368.384 183.98 368.48 183.884 368.028 184.509C366.588 186.493 383.745 202.039 384.972 201.822Z" fill="#D9D9D9"/>
<path d="M375.743 203.795C376.677 203.637 375.883 203.872 376.71 203.409C379.178 202.026 364.344 188.23 361.938 187.952C361.273 187.875 361.355 187.792 360.971 188.338C359.751 190.076 374.688 203.974 375.743 203.795Z" fill="#D9D9D9"/>
<path d="M364.897 204.94C365.658 204.817 365.012 205.006 365.684 204.626C367.686 203.492 355.426 191.778 353.457 191.521C352.912 191.45 352.979 191.381 352.67 191.835C351.691 193.279 364.037 205.079 364.897 204.94Z" fill="#D9D9D9"/>
<path d="M355.276 205.67C355.874 205.589 355.369 205.731 355.887 205.426C357.431 204.519 347.373 194.072 345.81 193.788C345.377 193.709 345.427 193.652 345.199 194.031C344.473 195.238 354.602 205.762 355.276 205.67Z" fill="#D9D9D9"/>
<path d="M422.638 54.3717C423.038 53.0271 422.82 54.2375 422.784 52.8301C422.678 48.6338 396.651 59.0963 394.793 62.102C394.279 62.9338 394.231 62.7695 394.647 63.6435C395.971 66.422 422.187 55.8896 422.638 54.3717Z" fill="#D9D9D9"/>
<path d="M430.018 60.3857C430.458 58.9026 430.218 60.2376 430.179 58.6853C430.063 54.0569 401.425 65.6037 399.38 68.9193C398.814 69.837 398.761 69.6557 399.219 70.6197C400.675 73.684 429.521 62.06 430.018 60.3857Z" fill="#D9D9D9"/>
<ellipse data-no-color="true" cx="11.9557" cy="12.1618" rx="11.9557" ry="12.1618" transform="matrix(-1 0 0 1 110.554 32.6543)" fill="#C94747"/>
<g filter="url(#filter2_d_140_400)">
<ellipse data-no-color="true" cx="10.3066" cy="10.3066" rx="10.3066" ry="10.3066" transform="matrix(-1 0 0 1 108.904 34.7129)" fill="black"/>
<path data-no-color="true" d="M98.5977 36.7129C94.01 36.7129 90.291 40.4319 90.291 45.0195C90.291 49.6071 94.01 53.3262 98.5977 53.3262C103.185 53.3262 106.904 49.6071 106.904 45.0195C106.904 40.4319 103.185 36.7129 98.5977 36.7129Z" stroke="black" stroke-width="4"/>
</g>
<ellipse data-no-color="true" cx="2.88586" cy="3.09198" rx="2.88586" ry="3.09198" transform="matrix(-1 0 0 1 109.316 37.6021)" fill="#F5F5F5"/>
<ellipse data-no-color="true" cx="2.88586" cy="3.09198" rx="2.88586" ry="3.09198" transform="matrix(-1 0 0 1 94.0654 43.7852)" fill="#F5F5F5"/>
<defs>
<filter id="filter0_d_140_400" x="5.88184" y="0" width="483.914" height="223.362" filterUnits="userSpaceOnUse" color-interpolation-filters="sRGB">
<feFlood flood-opacity="0" result="BackgroundImageFix"/>
<feColorMatrix in="SourceAlpha" type="matrix" values="0 0 0 0 0 0 0 0 0 0 0 0 0 0 0 0 0 0 127 0" result="hardAlpha"/>
<feOffset dy="4"/>
<feGaussianBlur stdDeviation="2"/>
<feComposite in2="hardAlpha" operator="out"/>
<feColorMatrix type="matrix" values="0 0 0 0 0 0 0 0 0 0 0 0 0 0 0 0 0 0 0.25 0"/>
<feBlend mode="normal" in2="BackgroundImageFix" result="effect1_dropShadow_140_400"/>
<feBlend mode="normal" in="SourceGraphic" in2="effect1_dropShadow_140_400" result="shape"/>
</filter>
<filter id="filter1_d_140_400" x="69.8643" y="21.1113" width="57.0557" height="55.8193" filterUnits="userSpaceOnUse" color-interpolation-filters="sRGB">
<feFlood flood-opacity="0" result="BackgroundImageFix"/>
<feColorMatrix in="SourceAlpha" type="matrix" values="0 0 0 0 0 0 0 0 0 0 0 0 0 0 0 0 0 0 127 0" result="hardAlpha"/>
<feOffset dy="4"/>
<feGaussianBlur stdDeviation="2"/>
<feComposite in2="hardAlpha" operator="out"/>
<feColorMatrix type="matrix" values="0 0 0 0 0 0 0 0 0 0 0 0 0 0 0 0 0 0 0.25 0"/>
<feBlend mode="normal" in2="BackgroundImageFix" result="effect1_dropShadow_140_400"/>
<feBlend mode="normal" in="SourceGraphic" in2="effect1_dropShadow_140_400" result="shape"/>
</filter>
<filter id="filter2_d_140_400" x="86.291" y="34.7129" width="24.6133" height="24.6133" filterUnits="userSpaceOnUse" color-interpolation-filters="sRGB">
<feFlood flood-opacity="0" result="BackgroundImageFix"/>
<feColorMatrix in="SourceAlpha" type="matrix" values="0 0 0 0 0 0 0 0 0 0 0 0 0 0 0 0 0 0 127 0" result="hardAlpha"/>
<feOffset dy="2"/>
<feGaussianBlur stdDeviation="1"/>
<feComposite in2="hardAlpha" operator="out"/>
<feColorMatrix type="matrix" values="0 0 0 0 0 0 0 0 0 0 0 0 0 0 0 0 0 0 0.25 0"/>
<feBlend mode="normal" in2="BackgroundImageFix" result="effect1_dropShadow_140_400"/>
<feBlend mode="normal" in="SourceGraphic" in2="effect1_dropShadow_140_400" result="shape"/>
</filter>
</defs>
</svg>
